<?xml version="1.0" encoding="UTF-8"?>
<svg version="1.1" xmlns="http://www.w3.org/2000/svg" width="512" height="512">
<path d="M0 0 C25.88940459 7.07643725 49.60580259 24.10428364 70 41 C70.52964355 41.43344727 71.05928711 41.86689453 71.60498047 42.31347656 C90.16667076 57.5253926 107.2200123 74.19630333 121.72949219 93.34423828 C122.94258835 94.92517952 124.19315901 96.47715372 125.4453125 98.02734375 C156.67123632 137.0346473 174.99329294 185.44336009 179 235 C179.77077881 234.66677734 180.54155762 234.33355469 181.33569336 233.99023438 C184.23220816 232.74722555 187.13448011 231.51908273 190.04125977 230.30029297 C191.29175612 229.77253102 192.53988454 229.23911791 193.78540039 228.69970703 C207.72722594 222.67111179 207.72722594 222.67111179 215 224 C219.16796007 227.73224485 221.37474603 232.18730638 223.5625 237.3125 C224.00746826 238.34431396 224.00746826 238.34431396 224.46142578 239.39697266 C228.83729006 249.9769569 231.55356361 261.54793598 232 273 C232.03996094 273.84304688 232.07992188 274.68609375 232.12109375 275.5546875 C232.60547999 295.21506999 227.04506988 314.72986122 213.5625 329.375 C211.73859731 331.28474783 209.8789786 333.14296568 208 335 C207.03126953 335.98419922 207.03126953 335.98419922 206.04296875 336.98828125 C199.56673993 343.12588373 190.47371037 349.17542988 182 352 C183.36277573 352.00546844 183.36277573 352.00546844 184.75308228 352.01104736 C193.3725948 352.04912994 201.99173672 352.10620951 210.61098671 352.18390274 C215.04080169 352.22318221 219.47042368 352.25546534 223.90039062 352.27099609 C228.18653971 352.28629281 232.47215753 352.32096382 236.75806808 352.36830902 C238.38202637 352.38299012 240.00606057 352.39103326 241.63008499 352.39188385 C259.79811023 352.41094501 275.5595429 356.20899199 288.9375 369.4375 C299.64954035 380.76517485 304.22898981 393.57374777 304.1015625 409.18359375 C303.98166147 412.50854161 303.64658078 415.76574007 303.2109375 419.0625 C302.93398063 421.15228374 302.93398063 421.15228374 303.125 423.875 C303 426 303 426 301.625 427.8125 C300 429 300 429 298 429 C297.75636719 429.72316406 297.51273437 430.44632812 297.26171875 431.19140625 C292.02797391 442.84175467 279.45104439 451.37553977 268 456 C258.76197995 459.34608999 249.79965179 459.42654489 240.12356567 459.38768005 C238.42391575 459.39185828 236.72426862 459.39733846 235.02462661 459.40399987 C230.37707292 459.41840911 225.72969726 459.41422393 221.08213401 459.40683305 C216.06088344 459.40209247 211.0396709 459.4146191 206.01843262 459.42485046 C196.19031269 459.44202634 186.36225674 459.44288098 176.5341257 459.43763756 C168.54393198 459.43359238 160.55375713 459.43504356 152.5635643 459.44038582 C150.85625673 459.44150845 150.85625673 459.44150845 149.11445811 459.44265376 C146.80202548 459.44418528 144.48959286 459.44572362 142.17716025 459.44726873 C120.50287218 459.46098939 98.82862022 459.45555913 77.15433298 459.44408352 C57.33740861 459.43415158 37.52057762 459.44709193 17.70366766 459.47101771 C-2.65844652 459.49541599 -23.02051723 459.50501478 -43.38264573 459.49836498 C-54.80879375 459.4948744 -66.23486997 459.49709431 -77.66100693 459.51461601 C-87.38773995 459.52934706 -97.1143506 459.52996155 -106.84108125 459.5125451 C-111.80069745 459.50404025 -116.76009513 459.50187307 -121.71969986 459.51719666 C-126.26595635 459.53106889 -130.81180762 459.52624805 -135.35804082 459.50695742 C-136.9965585 459.50320488 -138.63510883 459.50609772 -140.27359734 459.51656907 C-157.66209766 459.61973365 -171.81367079 455.51634005 -184.64453125 443.44140625 C-195.39254175 432.30126269 -200.40078434 418.5885315 -200.2109375 403.2109375 C-199.17564986 387.45155899 -191.5690932 374.63876469 -180.03125 364.22265625 C-170.67720525 356.68958333 -159.32572416 352.80547629 -147.390625 352.68115234 C-146.67744614 352.67110672 -145.96426727 352.6610611 -145.22947693 352.65071106 C-142.90299185 352.62014456 -140.57662037 352.60291891 -138.25 352.5859375 C-136.6247461 352.56720441 -134.9995017 352.54762943 -133.37426758 352.5272522 C-129.11978792 352.47615094 -124.8652768 352.43640819 -120.61065674 352.39910889 C-116.25989135 352.35893045 -111.90925433 352.30790158 -107.55859375 352.2578125 C-99.03915053 352.16131414 -90.51964323 352.07682681 -82 352 C-82.68761414 351.11585419 -83.37522827 350.23170837 -84.0836792 349.32077026 C-84.9943719 348.14475822 -85.9049493 346.96865689 -86.81542969 345.79248047 C-87.26763885 345.21165207 -87.71984802 344.63082367 -88.1857605 344.03239441 C-91.61311936 339.5978508 -94.60625797 335.07308474 -97.25 330.125 C-97.8702002 328.97994995 -97.8702002 328.97994995 -98.50292969 327.81176758 C-121.78672812 283.99282586 -121.36951741 233.9387383 -107.18701172 187.328125 C-104.13462416 177.68323794 -100.43125529 168.32669282 -96.375 159.0625 C-96.01494873 158.22750977 -95.65489746 157.39251953 -95.28393555 156.53222656 C-93.1871587 151.89689464 -91.28367922 147.96977761 -87 145 C-78.94789148 143.90125611 -71.48160118 146.4483903 -63.75 148.5625 C-61.26830818 149.24036953 -58.78400053 149.90875286 -56.296875 150.56640625 C-54.66250488 151.01415405 -54.66250488 151.01415405 -52.99511719 151.47094727 C-49.90302199 152.01713004 -47.98323862 151.91031693 -45 151 C-31.7419166 141.6854706 -25.42536602 123.90445145 -21 109 C-20.77328613 108.24267578 -20.54657227 107.48535156 -20.31298828 106.70507812 C-12.90362013 81.29850811 -12.54064747 55.48628147 -12.63964844 29.21142578 C-12.65263733 25.31259848 -12.62667082 21.41439454 -12.6015625 17.515625 C-12.61490631 16.32930481 -12.62825012 15.14298462 -12.64199829 13.92071533 C-12.55982608 4.84421689 -12.55982608 4.84421689 -9.67236328 1.74658203 C-6.12699657 -0.57057067 -4.17874241 -0.52906824 0 0 Z " fill="#FFA785" transform="translate(204,53)"/>
<path d="M0 0 C6.58925454 0.5510178 10.23159796 2.88782065 15.1171875 7.1875 C15.63861328 7.60829834 16.16003906 8.02909668 16.69726562 8.46264648 C21.23029569 12.17665748 24.84311353 16.20360402 28.3671875 20.875 C29.20515869 21.98367432 29.20515869 21.98367432 30.06005859 23.11474609 C50.50368962 50.74989555 63.13792016 83.8300662 71.78613281 116.84326172 C73.00534039 121.46419931 74.32951206 125.86607738 76.1875 130.2734375 C80.70462246 141.28459794 80.90797032 153.17465271 81.79443359 164.90869141 C81.9679466 167.17672035 82.15146456 169.44377769 82.3359375 171.7109375 C82.38496216 172.40263031 82.43398682 173.09432312 82.48449707 173.80697632 C82.77696499 177.35301215 83.22588161 180.13985668 85.1171875 183.1875 C92.74138719 183.83331456 99.27173067 182.26193671 106.50390625 180.0625 C110.24841457 179.15572177 113.28286431 178.81658603 117.1171875 179.1875 C118.79199219 180.35253906 118.79199219 180.35253906 120.1171875 182.1875 C120.52124023 184.76855469 120.52124023 184.76855469 120.55078125 187.859375 C120.56214111 188.99205811 120.57350098 190.12474121 120.58520508 191.29174805 C120.57513428 192.49484619 120.56506348 193.69794434 120.5546875 194.9375 C120.54783936 196.15928955 120.54099121 197.3810791 120.53393555 198.63989258 C120.32016291 210.69682942 119.16936908 224.13531842 110.1171875 233.1875 C108.43823663 233.28714154 106.75508471 233.31658903 105.07318115 233.31880188 C103.97992523 233.32281006 102.88666931 233.32681824 101.76028442 233.33094788 C100.5500058 233.33041916 99.33972717 233.32989044 98.09277344 233.3293457 C96.14806932 233.33467967 94.20336522 233.34001962 92.25866175 233.34558237 C90.16008871 233.3507907 88.06152197 233.35369694 85.96294403 233.35616493 C81.58220982 233.36207361 77.20155697 233.37861717 72.82086182 233.39750671 C71.32029348 233.40384507 69.81972509 233.41017068 68.31915665 233.41648388 C67.56733628 233.41964969 66.81551591 233.4228155 66.04091311 233.42607725 C55.84044143 233.46809821 45.64000545 233.50106933 35.43945312 233.51342773 C28.56354159 233.52184389 21.68782946 233.54447333 14.81201768 233.5827834 C11.17692309 233.60244168 7.54212588 233.61498346 3.90697479 233.60994911 C-0.1641782 233.60438074 -4.23460059 233.62986779 -8.30566406 233.6574707 C-10.08464584 233.64756859 -10.08464584 233.64756859 -11.89956665 233.63746643 C-28.13152121 233.81702056 -42.26340441 239.93431967 -53.8828125 251.1875 C-61.77393335 247.62494467 -68.97194213 243.70228365 -75.9453125 238.5625 C-76.56349854 238.10770264 -77.18168457 237.65290527 -77.81860352 237.18432617 C-81.46655491 234.43154088 -84.71598466 231.49752354 -87.8828125 228.1875 C-88.39585937 227.68347656 -88.90890625 227.17945313 -89.4375 226.66015625 C-103.05073167 212.12058041 -104.58863344 192.92728164 -104.16796875 174.0078125 C-103.87638794 166.47551145 -102.80515432 159.48455264 -100.8828125 152.1875 C-100.57730469 151.00929688 -100.27179688 149.83109375 -99.95703125 148.6171875 C-94.6149637 130.62898914 -84.70934607 114.59729033 -72.8828125 100.1875 C-72.17874268 99.3222168 -72.17874268 99.3222168 -71.46044922 98.43945312 C-64.90067678 90.41608173 -57.92735189 82.78415133 -50.8828125 75.1875 C-44.28287318 68.05162576 -37.93533859 60.79461327 -31.8828125 53.1875 C-31.068125 52.17945313 -30.2534375 51.17140625 -29.4140625 50.1328125 C-18.8797922 36.93442279 -11.67375782 23.39181271 -5.921875 7.5390625 C-3.29252932 0.32788674 -3.29252932 0.32788674 0 0 Z " fill="#FEE25C" transform="translate(252.8828125,172.8125)"/>
<path d="M0 0 C25.88940459 7.07643725 49.60580259 24.10428364 70 41 C70.52964355 41.43344727 71.05928711 41.86689453 71.60498047 42.31347656 C90.16667076 57.5253926 107.2200123 74.19630333 121.72949219 93.34423828 C122.94258835 94.92517952 124.19315901 96.47715372 125.4453125 98.02734375 C156.67123632 137.0346473 174.99329294 185.44336009 179 235 C179.77077881 234.66677734 180.54155762 234.33355469 181.33569336 233.99023438 C184.23220816 232.74722555 187.13448011 231.51908273 190.04125977 230.30029297 C191.29175612 229.77253102 192.53988454 229.23911791 193.78540039 228.69970703 C207.72722594 222.67111179 207.72722594 222.67111179 215 224 C219.16796007 227.73224485 221.37474603 232.18730638 223.5625 237.3125 C223.85914551 238.00037598 224.15579102 238.68825195 224.46142578 239.39697266 C228.83729006 249.9769569 231.55356361 261.54793598 232 273 C232.03996094 273.84304688 232.07992187 274.68609375 232.12109375 275.5546875 C232.60547999 295.21506999 227.04506988 314.72986122 213.5625 329.375 C211.73859731 331.28474783 209.8789786 333.14296568 208 335 C207.03126953 335.98419922 207.03126953 335.98419922 206.04296875 336.98828125 C198.35267158 344.27647137 185.7520846 353.32824644 174.91796875 353.1953125 C173.98662109 353.18886719 173.05527344 353.18242187 172.09570312 353.17578125 C171.13599609 353.15902344 170.17628906 353.14226562 169.1875 353.125 C168.20845703 353.11597656 167.22941406 353.10695313 166.22070312 353.09765625 C163.81354939 353.07417182 161.40690257 353.0413284 159 353 C159.39832031 352.27296875 159.79664063 351.5459375 160.20703125 350.796875 C160.73683594 349.79140625 161.26664063 348.7859375 161.8125 347.75 C162.33457031 346.77546875 162.85664063 345.8009375 163.39453125 344.796875 C167.99521813 334.7349005 168.40117191 324.6527463 168.1875 313.75 C168.17240372 312.40756735 168.15872418 311.06511799 168.14648438 309.72265625 C168.11150604 306.48133056 168.06242337 303.24089338 168 300 C162.10813022 299.75734899 157.25215931 300.23614437 151.5625 302 C139.0078736 305.6125353 139.0078736 305.6125353 134 304 C130.95677727 299.97388772 130.51545435 296.6074127 130.19140625 291.63671875 C130.11212135 290.57225273 130.11212135 290.57225273 130.03123474 289.48628235 C129.80736692 286.47833763 129.61290441 283.46872552 129.41870117 280.45874023 C128.58893773 267.99852809 127.05213261 255.7788831 122.0625 244.1875 C120.16567399 239.77610771 119.0180264 235.27437651 117.875 230.625 C109.28109643 196.76950727 94.65585319 162.84390623 72 136 C69.45240479 132.94288575 67.36394891 130.04383392 65.5625 126.5 C50.11702558 97.59824105 30.48286949 69.65842198 7.5625 46.1875 C6.93166504 45.53491211 6.30083008 44.88232422 5.65087891 44.20996094 C2.74115586 41.30546986 0.15679184 38.8673769 -3.625 37.1875 C-7.49075199 35.4369708 -9.47540447 34.45422999 -12 31 C-13.85658769 22.13378309 -14.92221644 9.53077595 -9.87109375 1.69921875 C-6.19453902 -0.4767014 -4.22476404 -0.53489502 0 0 Z " fill="#FF7D87" transform="translate(204,53)"/>
<path d="M0 0 C27.79069481 -0.09356647 55.5813659 -0.16403956 83.37218666 -0.20724869 C96.27682394 -0.22784739 109.18136317 -0.25591655 122.0859375 -0.30175781 C133.3375176 -0.34170794 144.58902666 -0.36745237 155.84067571 -0.37635398 C161.79475856 -0.38155485 167.74863825 -0.39372275 173.70265579 -0.42292023 C179.31523969 -0.45021847 184.92753813 -0.45841596 190.54018211 -0.45243073 C192.59194048 -0.45352454 194.64370913 -0.46139195 196.69540977 -0.4768219 C215.20562617 -0.60911472 231.38347506 1.71461718 245.49511719 15.01123047 C255.4704137 24.87509002 261.42564454 36.42842681 262.1328125 50.67578125 C262.11743283 55.86641908 261.89112363 60.91514547 261.2109375 66.0625 C260.93398063 68.15228374 260.93398063 68.15228374 261.125 70.875 C261 73 261 73 259.625 74.8125 C258 76 258 76 256 76 C255.75636719 76.72316406 255.51273438 77.44632812 255.26171875 78.19140625 C249.65257268 90.67740014 236.21761998 99.02412567 223.99428844 103.78046131 C214.21540118 106.98259508 204.17853387 106.3975819 194.01489258 106.34057617 C191.89507052 106.33972894 189.77524758 106.34020692 187.65542603 106.34190369 C181.92684328 106.3427613 176.19845056 106.32517344 170.46991181 106.30418181 C164.47349665 106.28537593 158.4770767 106.28366149 152.4806366 106.28010559 C141.13722678 106.27079661 129.79390412 106.24619834 118.45053262 106.21605712 C105.53155132 106.1824774 92.61256577 106.16601812 79.69355166 106.15097082 C53.12898619 106.11964778 26.56449799 106.0669096 0 106 C0 105.67 0 105.34 0 105 C0.95519531 104.78085937 1.91039062 104.56171875 2.89453125 104.3359375 C17.81679514 100.74483194 29.6144463 94.7803038 38.359375 81.80078125 C42.21376828 75.22078129 45.93407826 67.4707093 46.31640625 59.76953125 C46.37924805 58.56586914 46.37924805 58.56586914 46.44335938 57.33789062 C46.48267578 56.50451172 46.52199219 55.67113281 46.5625 54.8125 C46.62727539 53.5450293 46.62727539 53.5450293 46.69335938 52.25195312 C46.79931518 50.16815567 46.9001502 48.08409897 47 46 C46.21625 45.87625 45.4325 45.7525 44.625 45.625 C42 45 42 45 40 43 C39.62524815 39.55228298 39.51716237 37.69757005 41.51953125 34.8046875 C42.00808594 34.20914063 42.49664062 33.61359375 43 33 C35.10168311 17.5114566 25.71924735 8.72975545 9 3 C6.00041765 2.18540338 3.0609857 1.56118071 0 1 C0 0.67 0 0.34 0 0 Z " fill="#C37676" transform="translate(246,406)"/>
<path d="M0 0 C0.72316406 -0.01956757 1.44632813 -0.03913513 2.19140625 -0.05929565 C4.55754548 -0.11856372 6.92346496 -0.16178595 9.29003906 -0.19970703 C10.10619942 -0.21285069 10.92235977 -0.22599434 11.76325226 -0.23953629 C16.08233212 -0.30443758 20.40131917 -0.35341096 24.72070312 -0.39257812 C28.27165465 -0.42819172 31.81942436 -0.49781844 35.36914062 -0.59765625 C39.68413901 -0.71880672 43.99619533 -0.77961848 48.31281281 -0.79892349 C49.94440385 -0.81590547 51.57592951 -0.85322994 53.20653534 -0.91241074 C66.55231888 -1.37078939 66.55231888 -1.37078939 71.92936707 3.05984497 C75.00054682 5.96021847 77.63257729 9.15234491 80.30566406 12.41748047 C84.64208263 16.45972165 89.5207301 19.92469682 94.30566406 23.41748047 C94.90781738 23.85866211 95.5099707 24.29984375 96.13037109 24.75439453 C106.15787168 32.00492568 117.13700211 38.56080782 129.30566406 41.41748047 C129.24765625 42.68720703 129.18964844 43.95693359 129.12988281 45.26513672 C128.58575923 62.31933413 131.66069634 76.85155229 143.55566406 89.88232422 C152.67642212 98.66690049 163.02391434 102.93499914 175.30566406 105.41748047 C175.30566406 105.74748047 175.30566406 106.07748047 175.30566406 106.41748047 C151.66998645 106.51107316 128.03433677 106.58153279 104.39851093 106.62472916 C93.4230815 106.64532234 82.44776746 106.6733808 71.47241211 106.71923828 C61.90222235 106.75920548 52.33211619 106.78493684 42.76184529 106.79383445 C37.69812775 106.79903248 32.63464932 106.81118179 27.57100868 106.8404007 C22.79642686 106.86772615 18.02218067 106.87589111 13.24752808 106.86991119 C11.50334532 106.87100382 9.75915032 106.87885502 8.01503563 106.89430237 C-9.73218895 107.04366148 -24.1337355 103.28604166 -37.33886719 90.85888672 C-48.08687769 79.71874316 -53.09512028 66.00601197 -52.90527344 50.62841797 C-51.8699858 34.86903946 -44.26342914 22.05624516 -32.72558594 11.64013672 C-23.32692477 4.07113295 -11.9691025 0.29321539 0 0 Z " fill="#DE758E" transform="translate(56.6943359375,405.58251953125)"/>
<path d="M0 0 C5.76614281 0.4805119 8.86201339 3.66880383 12.5078125 7.93359375 C34.63460218 36.92267549 50.57797131 77.4462073 45.68359375 114.38818359 C44.06765677 123.1679771 41.25341774 132.1408931 37 140 C36.64434967 140.65835846 36.28869934 141.31671692 35.92227173 141.99502563 C33.90298862 145.21130765 32.36597428 147.57868278 28.63626099 148.72906494 C25.74600737 148.98928305 22.94794557 149.00351809 20.046875 148.9296875 C18.99147522 148.93582062 17.93607544 148.94195374 16.84869385 148.94827271 C13.48123365 148.96117402 10.11713519 148.92029994 6.75 148.875 C3.39794596 148.86148171 0.04622577 148.85929033 -3.30584717 148.86599731 C-5.38731032 148.86676912 -7.46883696 148.85429382 -9.55010986 148.82614136 C-15.24373961 148.79087468 -20.38291239 149.28640475 -25.92022705 150.64537048 C-30.15276501 151.36707565 -32.81787107 149.11298636 -36.26171875 146.96484375 C-47.23753472 139.08918693 -54.67145431 130.24790349 -58 117 C-58.43437827 113.71632693 -58.52533945 110.49734475 -58.5 107.1875 C-58.49427979 106.3116626 -58.48855957 105.4358252 -58.48266602 104.53344727 C-58.28052003 97.16566858 -56.72140294 91.41328071 -53 85 C-52.49210938 84.09378906 -51.98421875 83.18757813 -51.4609375 82.25390625 C-47.78516112 76.113095 -43.37094111 70.79319905 -38.7421875 65.35546875 C-23.52525816 47.0719469 -11.14867051 25.60466331 -2.12890625 3.6328125 C-1 1 -1 1 0 0 Z " fill="#FEF1A4" transform="translate(249,258)"/>
<path d="M0 0 C13.45987458 -0.42648525 25.92974429 4.86389724 36.015625 13.6171875 C46.7847896 23.76437065 53.38495495 35.60865122 54.1328125 50.67578125 C54.11743283 55.86641908 53.89112363 60.91514547 53.2109375 66.0625 C52.93398063 68.15228374 52.93398063 68.15228374 53.125 70.875 C53 73 53 73 51.625 74.8125 C50 76 50 76 48 76 C47.75636719 76.72316406 47.51273438 77.44632812 47.26171875 78.19140625 C41.65257268 90.67740014 28.21761998 99.02412567 15.99428844 103.78046131 C6.21540118 106.98259508 -3.82146613 106.3975819 -13.98510742 106.34057617 C-16.10492948 106.33972894 -18.22475242 106.34020692 -20.34457397 106.34190369 C-26.07315672 106.3427613 -31.80154944 106.32517344 -37.53008819 106.30418181 C-43.52650335 106.28537593 -49.5229233 106.28366149 -55.5193634 106.28010559 C-66.86277322 106.27079661 -78.20609588 106.24619834 -89.54946738 106.21605712 C-102.46844868 106.1824774 -115.38743423 106.16601812 -128.30644834 106.15097082 C-154.87101381 106.11964778 -181.43550201 106.0669096 -208 106 C-208 105.67 -208 105.34 -208 105 C-207.04480469 104.78085937 -206.08960938 104.56171875 -205.10546875 104.3359375 C-190.03336836 100.70877315 -178.70116215 94.71502101 -169.67578125 81.85546875 C-167.4581864 78.07676983 -165.77943776 74.00373497 -164 70 C-122.09 70 -80.18 70 -37 70 C-36.67 68.68 -36.34 67.36 -36 66 C-34 64 -34 64 -31.43725586 63.79223633 C-30.37385986 63.80536865 -29.31046387 63.81850098 -28.21484375 63.83203125 C-26.45817383 63.82139648 -26.45817383 63.82139648 -24.66601562 63.81054688 C-22.20759435 63.81183468 -19.74909841 63.83223243 -17.29101562 63.87304688 C-9.86872349 63.78791955 -5.43937469 62.8991331 0.19165039 57.93603516 C8.22727079 49.33302857 12.41015354 39.0282012 12.140625 27.19140625 C11.42818118 16.08915666 6.62737237 8.71489333 0 0 Z " fill="#BA5676" transform="translate(454,406)"/>
<path d="M0 0 C9.55175949 6.38322092 16.4264389 14.79934387 20.42578125 25.62109375 C19.68328125 26.17796875 19.68328125 26.17796875 18.92578125 26.74609375 C16.79249417 29.4127026 17.07247664 31.30003038 17.42578125 34.62109375 C19.56432975 36.75964225 20.55853439 37.04764438 23.42578125 37.62109375 C24.21306922 53.20939562 22.09254292 64.86200779 12.42578125 77.62109375 C11.68328125 78.65234375 10.94078125 79.68359375 10.17578125 80.74609375 C-0.48605705 91.89256107 -15.15900146 97.53330326 -30.38671875 97.93359375 C-45.84948237 97.65124468 -58.98346988 92.05874949 -70.1015625 81.30859375 C-79.97942536 70.57246476 -85.37777114 57.04446246 -85.09790039 42.4753418 C-84.31593648 27.7191591 -77.309465 14.59615849 -66.57421875 4.62109375 C-46.5795021 -10.54731198 -21.88380552 -13.0006015 0 0 Z " fill="#E69C8D" transform="translate(269.57421875,414.37890625)"/>
<path d="M0 0 C7.35397761 -0.27995604 14.70678038 -0.4921904 22.06503677 -0.62174606 C25.48344325 -0.68398332 28.89816707 -0.76811951 32.31445312 -0.90527344 C57.46824396 -1.8888459 57.46824396 -1.8888459 63.97694397 4.06234741 C66.21942459 6.57626161 68.0974482 9.21798808 70 12 C74.27761317 16.08537296 79.22457967 19.51416086 84 23 C84.60215332 23.44118164 85.20430664 23.88236328 85.82470703 24.33691406 C95.85220761 31.58744521 106.83133805 38.14332735 119 41 C118.94199219 42.26972656 118.88398438 43.53945313 118.82421875 44.84765625 C118.28009517 61.90185367 121.35503228 76.43407182 133.25 89.46484375 C142.37075806 98.24942002 152.71825028 102.51751867 165 105 C165 105.33 165 105.66 165 106 C110.55 106 56.1 106 0 106 C0 105.67 0 105.34 0 105 C0.87140625 104.79246094 1.7428125 104.58492188 2.640625 104.37109375 C17.83584181 100.44072923 30.14669296 93.17887103 38.61328125 79.5859375 C45.94347021 65.91668373 47.3858092 51.55511308 42.95703125 36.69140625 C38.15680918 23.19200623 29.51867675 13.07829267 16.86328125 6.33203125 C11.41085742 3.7955012 5.9478923 1.95933747 0 1 C0 0.67 0 0.34 0 0 Z " fill="#BA5677" transform="translate(67,406)"/>
<path d="M0 0 C2 1 2 1 3.01318359 3.97363281 C3.36310902 5.29671595 3.69881508 6.62360739 4.0234375 7.953125 C4.28693497 9.02267426 4.28693497 9.02267426 4.55575562 10.11383057 C6.44700849 18.25202952 7.06208938 26.43344961 7.625 34.75 C7.78543941 37.02707987 7.95004638 39.30360798 8.12460327 41.57965088 C8.27971904 43.61195822 8.42082739 45.64532071 8.56103516 47.67871094 C8.95354572 50.64851833 9.44435402 52.48330344 11 55 C18.62419969 55.64581456 25.15454317 54.07443671 32.38671875 51.875 C36.13122707 50.96822177 39.16567681 50.62908603 43 51 C44.67480469 52.16503906 44.67480469 52.16503906 46 54 C46.40405273 56.58105469 46.40405273 56.58105469 46.43359375 59.671875 C46.44495361 60.80455811 46.45631348 61.93724121 46.46801758 63.10424805 C46.45794678 64.30734619 46.44787598 65.51044434 46.4375 66.75 C46.43065186 67.97178955 46.42380371 69.1935791 46.41674805 70.45239258 C46.20297541 82.50932942 45.05218158 95.94781842 36 105 C33.41360962 105.09507821 30.8540144 105.12556376 28.26733398 105.11352539 C27.05279541 105.11374443 27.05279541 105.11374443 25.8137207 105.1139679 C23.12448492 105.11326854 20.43531751 105.1054751 17.74609375 105.09765625 C15.88664284 105.09579215 14.02719144 105.09436821 12.16773987 105.09336853 C7.26370904 105.08954271 2.35970764 105.07971188 -2.54431152 105.06866455 C-7.54451092 105.05845181 -12.54471506 105.05387121 -17.54492188 105.04882812 C-27.36329421 105.03808967 -37.18164466 105.02101248 -47 105 C-46.27173759 103.76819504 -46.27173759 103.76819504 -45.52876282 102.51150513 C-44.89447861 101.43279144 -44.2601944 100.35407776 -43.60668945 99.24267578 C-42.66186455 97.63962082 -42.66186455 97.63962082 -41.69795227 96.00418091 C-39.80176984 92.64927209 -38.42911337 89.51648091 -37.1875 85.875 C-36.77371094 84.70324219 -36.35992187 83.53148437 -35.93359375 82.32421875 C-35.08023757 79.28569947 -34.87109236 76.81168278 -34.75 73.6875 C-34.29691194 70.91913193 -33.69672197 69.51435995 -31.41992188 67.83349609 C-27.83985743 65.7119435 -24.10586109 63.93700844 -20.3515625 62.1484375 C-10.35696973 57.36804139 -1.63977703 49.42280003 2.9375 39.1875 C6.81458019 26.68391637 2.38037449 12.45265057 0 0 Z " fill="#FFAB62" transform="translate(327,301)"/>
<path d="M0 0 C8.55374281 7.83177553 12.45860109 16.14971576 13.25 27.625 C12.77928405 48.41495446 -1.09214687 65.53849198 -14.375 80.1875 C-15.12475098 81.01737427 -15.12475098 81.01737427 -15.88964844 81.86401367 C-18.42678647 84.59002373 -20.62871035 86.45800534 -24 88 C-24.06469482 87.44763672 -24.12938965 86.89527344 -24.19604492 86.32617188 C-26.75434202 65.12195149 -30.98468018 42.22613006 -47.9375 27.4375 C-50.28876218 24.6587356 -50.79879436 22.74854981 -50.5390625 19.10546875 C-48.61538019 11.59195597 -41.01381308 5.39074028 -35 1 C-23.99290782 -5.09995232 -10.91959221 -8.10595495 0 0 Z " fill="#FFA785" transform="translate(440,84)"/>
<path d="M0 0 C2.67074064 3.22450112 4.93772927 6.45962789 7.0625 10.0625 C19.37591785 29.48281652 41.53160288 47.03008366 63.5859375 53.79296875 C66.81491985 55.40745993 67.82391321 57.34111107 69.625 60.4375 C71.5487588 63.706149 73.31806984 66.34245102 76 69 C76 69.66 76 70.32 76 71 C76.51691406 71.22300781 77.03382813 71.44601562 77.56640625 71.67578125 C80.93986739 73.51142062 83.88976796 75.86732878 86.9375 78.1875 C93.64156851 83.21410387 100.48953399 87.28909521 108 91 C106.68692823 94.54340898 105.10180268 97.57429201 103.0625 100.75 C100.24735458 105.33407543 98.42458023 109.82652443 97 115 C90.9792423 114.52502911 86.57146966 113.24286152 81.25 110.4375 C80.55825684 110.08107422 79.86651367 109.72464844 79.15380859 109.35742188 C65.2229442 102.03656125 53.31949559 92.33935625 41.875 81.63671875 C40.16755328 80.07078596 38.42743846 78.53761889 36.625 77.08203125 C16.62557679 60.90392641 4.83180115 30.57916236 0 6 C-0.05711955 4.00081583 -0.07558892 1.99857107 0 0 Z " fill="#FE7D86" transform="translate(90,332)"/>
<path d="M0 0 C13.45987458 -0.42648525 25.92974429 4.86389724 36.015625 13.6171875 C46.7847896 23.76437065 53.38495495 35.60865122 54.1328125 50.67578125 C54.11743283 55.86641908 53.89112363 60.91514547 53.2109375 66.0625 C52.93398063 68.15228374 52.93398063 68.15228374 53.125 70.875 C53 73 53 73 51.99243164 74.60855103 C48.89463032 76.77195396 45.64111916 76.41693188 41.99609375 76.38818359 C40.77371506 76.39606903 40.77371506 76.39606903 39.52664185 76.40411377 C36.83006686 76.41732901 34.1340811 76.40857043 31.4375 76.3984375 C29.56567267 76.4004578 27.69384611 76.40336887 25.82202148 76.40713501 C21.89787303 76.41156042 17.97392935 76.40512032 14.04980469 76.39111328 C9.01559653 76.37402127 3.98186816 76.38386129 -1.05232239 76.40183067 C-4.91788356 76.41266264 -8.78333068 76.40922487 -12.64889526 76.4014473 C-14.50528012 76.39944366 -16.36167527 76.40191027 -18.2180481 76.40888596 C-20.81100969 76.41649082 -23.40319043 76.40491014 -25.99609375 76.38818359 C-26.76605682 76.39425629 -27.5360199 76.40032898 -28.32931519 76.40658569 C-33.49011137 76.34479825 -33.49011137 76.34479825 -35.97680664 74.66323853 C-37.59261343 72.03668502 -37.37527869 70.00222949 -37 67 C-35.84423828 65.32910156 -35.84423828 65.32910156 -34 64 C-31.32373047 63.67871094 -31.32373047 63.67871094 -28.1171875 63.734375 C-26.94929688 63.73050781 -25.78140625 63.72664063 -24.578125 63.72265625 C-22.13264483 63.74071359 -19.68722412 63.77426639 -17.2421875 63.82421875 C-9.82591443 63.7672956 -5.43802565 62.89876577 0.18945312 57.93823242 C8.22626891 49.33463472 12.41018608 39.02963047 12.140625 27.19140625 C11.42818118 16.08915666 6.62737237 8.71489333 0 0 Z " fill="#BA5676" transform="translate(454,406)"/>
<path d="M0 0 C3.62576925 1.64022895 4.08318566 3.53194372 5.5703125 7.1171875 C6.39784356 9.52622236 7.06233049 11.85646636 7.6796875 14.3203125 C9.87253059 23.27703824 9.87253059 23.27703824 16.03125 29.6640625 C19.77087125 31.51674073 23.68701509 32.82117609 27.625 34.1875 C29.46176884 35.12034717 31.27997682 36.09226832 33.0625 37.125 C34.11244141 37.72634766 34.11244141 37.72634766 35.18359375 38.33984375 C35.65925781 38.61957031 36.13492188 38.89929688 36.625 39.1875 C36.9375 42 36.9375 42 36.625 45.1875 C33.73024929 47.42991252 30.74620603 48.50128206 27.296875 49.5703125 C20.73553267 51.77956115 14.64507975 53.87584709 10.89599609 60.02197266 C8.05078133 66.40858196 6.07536372 73.03434404 4.37670898 79.80834961 C3.625 82.1875 3.625 82.1875 1.625 84.1875 C-0.84375 84.13671875 -0.84375 84.13671875 -3.375 83.1875 C-4.78125 80.95703125 -4.78125 80.95703125 -5.875 78 C-6.30039063 76.91976562 -6.72578125 75.83953125 -7.1640625 74.7265625 C-8.375 71.1875 -8.375 71.1875 -9.2734375 67.5234375 C-11.2349217 60.0055084 -11.2349217 60.0055084 -16.7109375 54.921875 C-19.9077129 53.34731344 -23.20694223 52.09251629 -26.55712891 50.88574219 C-29.11264108 49.90417291 -31.4430632 48.61365043 -33.8125 47.25 C-34.51246094 46.84910156 -35.21242187 46.44820312 -35.93359375 46.03515625 C-36.40925781 45.75542969 -36.88492188 45.47570312 -37.375 45.1875 C-37.375 43.2075 -37.375 41.2275 -37.375 39.1875 C-33.46875 37.234375 -29.5625 35.28125 -25.65625 33.328125 C-24.59688232 32.77874268 -24.59688232 32.77874268 -23.51611328 32.21826172 C-21.375 31.1875 -21.375 31.1875 -19.22998047 30.47314453 C-15.59101602 29.14065016 -13.83369422 28.02454688 -11.93652344 24.5625 C-10.6416399 21.26161672 -9.54111111 17.95181061 -8.5 14.5625 C-7.75690925 12.27724147 -7.0097161 9.99331156 -6.2578125 7.7109375 C-5.78432373 6.1937915 -5.78432373 6.1937915 -5.30126953 4.64599609 C-4.12292033 1.51843246 -3.43107532 0.27087437 0 0 Z " fill="#FFC8B7" transform="translate(79.375,60.8125)"/>
<path d="M0 0 C-1.15839236 12.02331384 -4.53115395 26.6153622 -14 35 C-17.6579693 36.12550902 -21.15026801 36.02646804 -24.953125 35.9296875 C-26.53622467 35.93888718 -26.53622467 35.93888718 -28.15130615 35.94827271 C-31.51876635 35.96117402 -34.88286481 35.92029994 -38.25 35.875 C-41.60205404 35.86148171 -44.95377423 35.85929033 -48.30584717 35.86599731 C-50.38731032 35.86676912 -52.46883696 35.85429382 -54.55010986 35.82614136 C-60.24373961 35.79087468 -65.38291239 36.28640475 -70.92022705 37.64537048 C-75.14603808 38.36592862 -77.806861 36.11775816 -81.25 33.98046875 C-87.98281362 29.1316953 -93.55636281 24.68195988 -97 17 C-96.30253662 16.98541748 -95.60507324 16.97083496 -94.88647461 16.95581055 C-78.74497765 16.5820853 -62.94340524 15.58478628 -47 13 C-46.15421387 12.86754883 -45.30842773 12.73509766 -44.43701172 12.59863281 C-30.22905996 10.3096201 -13.60270682 0 0 0 Z " fill="#FEB7A8" transform="translate(294,371)"/>
<path d="M0 0 C8.52503109 0.20006592 13.87237717 2.61065207 20.11328125 8.41015625 C26.69684878 15.51924136 27.42852654 23.17757389 27.2109375 32.54296875 C26.55697223 39.8810674 23.25788645 44.25695278 18 49.1875 C10.9377501 54.93305924 2.97210297 57.19603158 -6.125 56.3125 C-15.1157842 54.4577578 -21.95165306 49.6526597 -27.1171875 42.12109375 C-29.46772903 37.90287388 -30.40141188 34.4649763 -30.375 29.625 C-30.38015625 28.67238281 -30.3853125 27.71976562 -30.390625 26.73828125 C-30.125 24.3125 -30.125 24.3125 -28.125 22.3125 C-21.97142113 21.64120049 -21.97142113 21.64120049 -19.3125 23.75 C-18.18318476 26.1869434 -17.73474587 28.12975203 -17.25 30.75 C-16.34184511 35.28333054 -14.85790063 37.42798588 -11.125 40.3125 C-6.64805756 43.13492024 -3.39477385 43.94850719 1.875 43.3125 C6.18159075 41.88235635 9.20268259 40.00162535 12.375 36.75 C14.85469685 31.06736139 14.92458424 25.21429173 12.8125 19.375 C8.2303884 14.4972683 3.20289119 12.88587924 -3.20703125 11.8046875 C-5.125 11.3125 -5.125 11.3125 -7.125 9.3125 C-7.375 5.8125 -7.375 5.8125 -7.125 2.3125 C-4.5722893 -0.2402107 -3.54169481 0.01479817 0 0 Z " fill="#CC576C" transform="translate(59.125,431.6875)"/>
<path d="M0 0 C1.65 0 3.3 0 5 0 C5.7727205 1.83253872 6.54306961 3.66607742 7.3125 5.5 C7.74175781 6.5209375 8.17101562 7.541875 8.61328125 8.59375 C10 12 10 12 10.55395508 14.05517578 C11.43879133 17.11368542 12.08325008 19.32310432 14.70483398 21.25878906 C16.79259068 22.27627048 18.87322453 23.10072043 21.0625 23.875 C28.86822397 26.86822397 28.86822397 26.86822397 31 29 C31.11328125 31.41796875 31.11328125 31.41796875 30 34 C27.36496379 35.32496171 24.94494988 36.33607869 22.1875 37.3125 C15.64561564 39.65249002 15.64561564 39.65249002 11.25 44.6875 C10.77923449 46.10820306 10.36928014 47.54960366 10 49 C9.25338948 51.16783698 8.50323299 53.33445515 7.75 55.5 C7.16068219 57.33141842 6.57524471 59.16411264 6 61 C3.525 61.495 3.525 61.495 1 62 C0.41124421 60.7316697 -0.17053215 59.46010055 -0.75 58.1875 C-1.13285156 57.36765625 -1.51570313 56.5478125 -1.91015625 55.703125 C-3 53 -3 53 -3.55859375 50.234375 C-4.45636112 46.2418195 -5.23504222 43.14750601 -8.82421875 40.81396484 C-11.84429396 39.26665073 -14.89514875 37.92463954 -18.0690918 36.72436523 C-20.15275663 35.91792356 -22.09304909 35.16577611 -24 34 C-25.01953125 31.2734375 -25.01953125 31.2734375 -25 29 C-23.87925254 28.26431382 -22.75300508 27.53700919 -21.625 26.8125 C-20.89667969 26.33683594 -20.16835938 25.86117188 -19.41796875 25.37109375 C-17 24 -17 24 -14.48828125 23.22265625 C-10.55843191 21.91671857 -7.91391026 20.6886524 -5.87451172 16.92041016 C-3.49677219 11.42535934 -1.66990347 5.74524307 0 0 Z " fill="#FFC8B7" transform="translate(335,0)"/>
<path d="M0 0 C5.71200707 -0.07979476 11.42009809 -0.10031995 17.13256836 -0.06713867 C19.07336481 -0.064066 21.01425659 -0.07688039 22.95483398 -0.10620117 C39.13342456 -0.3344193 39.13342456 -0.3344193 43.71459961 2.94067383 C45.44765714 5.21826683 46.72717413 7.44445509 48 10 C53.03106433 14.8155657 58.69059657 18.13208935 65 21 C62.58725193 23.72536327 60.04962389 25.12458941 56.8125 26.75 C51.52788492 29.54691064 47.28270237 32.85228252 43 37 C35.10887915 33.43744467 27.91087037 29.51478365 20.9375 24.375 C20.31931396 23.92020264 19.70112793 23.46540527 19.06420898 22.99682617 C11.63459752 17.39035751 4.3018239 10.36465759 0 2 C0 1.34 0 0.68 0 0 Z " fill="#FEAC62" transform="translate(156,387)"/>
<path d="M0 0 C4.73618577 3.28591903 7.72766592 7.56355029 8.82421875 13.265625 C8.90760161 19.64441414 8.08570261 24.29389383 3.82421875 29.265625 C-1.03525651 33.75129447 -5.33743402 35.78102794 -12.05859375 35.578125 C-17.29833928 34.80473083 -21.571068 32.27724239 -25.05078125 28.328125 C-28.71685844 23.04466081 -29.9400173 18.72465229 -29.17578125 12.265625 C-27.11261585 5.22659011 -22.96459776 1.40290611 -16.73828125 -2.109375 C-10.39139704 -3.65739554 -5.6464852 -3.15049469 0 0 Z " fill="#FFA785" transform="translate(35.17578125,323.734375)"/>
<path d="M0 0 C1.23700905 -0.00788544 1.23700905 -0.00788544 2.49900818 -0.01593018 C5.22804644 -0.02914616 7.95650256 -0.02038655 10.68554688 -0.01025391 C12.57979444 -0.01227418 14.47404124 -0.01518524 16.36828613 -0.01895142 C20.33951213 -0.02337693 24.31053579 -0.01693639 28.28173828 -0.00292969 C33.37647863 0.01416232 38.47074489 0.00432235 43.56546783 -0.01364708 C47.47735172 -0.02447877 51.38912289 -0.02104141 55.30101013 -0.0132637 C57.17972367 -0.01125999 59.05844739 -0.01372695 60.93714905 -0.02070236 C63.56124039 -0.02830674 66.18456001 -0.01672716 68.80859375 0 C69.58790756 -0.00607269 70.36722137 -0.01214539 71.17015076 -0.0184021 C76.37043606 0.04312544 76.37043606 0.04312544 78.91809082 1.68978882 C80.64755497 4.66818554 79.71736974 7.19396878 78.90429688 10.38818359 C75.15975499 12.88454485 72.23576674 12.67679121 67.90039062 12.6628418 C67.0854715 12.66795273 66.27055237 12.67306366 65.43093872 12.67832947 C62.73448362 12.6922413 60.03828362 12.6912677 57.34179688 12.68896484 C55.46996973 12.69285053 53.59814347 12.69718493 51.72631836 12.70195007 C47.80221702 12.70941543 43.87820565 12.70911845 39.95410156 12.70385742 C34.91991648 12.69805837 29.88609879 12.71500274 24.85197449 12.7382021 C20.98642821 12.75291639 17.12097093 12.75381436 13.25540161 12.75069237 C11.39900992 12.75120661 9.54261338 12.75646357 7.68624878 12.76650429 C5.09332212 12.77880867 2.50111778 12.77211376 -0.09179688 12.76049805 C-0.86175995 12.76814178 -1.63172302 12.77578552 -2.42501831 12.78366089 C-7.58626091 12.73242437 -7.58626091 12.73242437 -10.07250977 11.05241394 C-11.68779796 8.42513768 -11.47104225 6.39089657 -11.09570312 3.38818359 C-8.56569775 -0.74762393 -4.33068146 -0.03374622 0 0 Z " fill="#A7395E" transform="translate(297.095703125,439.61181640625)"/>
<path d="M0 0 C0.80355927 -0.00686325 1.60711853 -0.0137265 2.43502808 -0.02079773 C5.09431573 -0.03911612 7.75301623 -0.03522106 10.41235352 -0.02954102 C12.25936577 -0.03410054 14.10637633 -0.03940542 15.9533844 -0.04542542 C19.82625211 -0.05436651 23.69891373 -0.05192223 27.57177734 -0.04199219 C32.53648724 -0.03050357 37.50048578 -0.05070714 42.4651022 -0.07990932 C46.28010075 -0.09825047 50.09492822 -0.097983 53.90995979 -0.0922718 C55.74040792 -0.09211832 57.57086745 -0.09818495 59.40127373 -0.11056328 C61.96067869 -0.12543167 64.51876159 -0.11482749 67.078125 -0.09765625 C67.83514206 -0.10732422 68.59215912 -0.11699219 69.37211609 -0.12695312 C72.85696889 -0.0779629 74.76185897 0.14548437 77.57801819 2.2752533 C79.10375977 4.40405273 79.10375977 4.40405273 79.54125977 6.96655273 C79.10375977 9.40405273 79.10375977 9.40405273 78.07666016 11.03213501 C74.98967918 13.17876337 71.72776194 12.82084961 68.09985352 12.79223633 C67.28493439 12.79749329 66.47001526 12.80275024 65.63040161 12.8081665 C62.93382663 12.82138175 60.23784086 12.81262317 57.54125977 12.80249023 C55.66943244 12.80451053 53.79760588 12.8074216 51.92578125 12.81118774 C48.0016328 12.81561316 44.07768912 12.80917305 40.15356445 12.79516602 C35.11935629 12.778074 30.08562793 12.78791402 25.05143738 12.80588341 C21.1858762 12.81671538 17.32042908 12.81327761 13.4548645 12.80550003 C11.59847965 12.8034964 9.7420845 12.805963 7.88571167 12.81293869 C5.29275007 12.82054355 2.70056934 12.80896288 0.10766602 12.79223633 C-0.66229706 12.79830902 -1.43226013 12.80438171 -2.22555542 12.81063843 C-7.38635161 12.74885098 -7.38635161 12.74885098 -9.87304688 11.06729126 C-11.48885367 8.44073775 -11.27151892 6.40628222 -10.89624023 3.40405273 C-8.37286115 -0.66856305 -4.29661105 -0.02548192 0 0 Z " fill="#A7395D" transform="translate(427.896240234375,469.595947265625)"/>
<path d="M0 0 C9.02889712 2.45574238 15.7832338 7.31996832 20.9375 15.125 C22.63936248 18.11753671 23.75157949 20.52211284 24 24 C24.0928125 25.07701172 24.0928125 25.07701172 24.1875 26.17578125 C24.57973383 34.05722982 22.53296043 40.97305075 17.75 47.3125 C11.89923001 53.03029794 5.16581623 56.90080202 -3.125 57.375 C-7 57 -7 57 -9.5 55.3125 C-11.29268598 52.54877578 -11.58006212 51.23177469 -11 48 C-8.81741289 45.2344859 -7.11655488 44.58959134 -3.6875 44.0625 C1.56759564 43.02857061 5.23746029 41.00564864 8.8125 36.9375 C11.24470736 32.96916168 11.38028959 29.56347512 11 25 C9.29217097 20.68175873 6.95626353 17.46910692 3 15 C0.55777553 14.36497875 0.55777553 14.36497875 -2 14.0625 C-5.15783422 13.48410791 -6.93278337 13.04220579 -9.6875 11.3125 C-11 9 -11 9 -10.9375 5.375 C-9.25559223 -0.67986798 -5.62091169 -0.53532492 0 0 Z " fill="#CC586C" transform="translate(243,431)"/>
<path d="M0 0 C3.5386994 1.65139305 4.81070153 2.71605229 7 6 C7.52118367 12.04573054 6.7087424 17.78887437 5.75 23.75 C5.64083252 24.48299316 5.53166504 25.21598633 5.41918945 25.97119141 C4.6066945 30.63730994 3.42210952 33.52483452 0 37 C-3.20173254 38.60086627 -6.52577059 38.49917089 -10 38 C-12.8100346 36.20636089 -14.50940468 34.98119065 -16 32 C-15.90311419 8.55363322 -15.90311419 8.55363322 -9.75 1.375 C-6.19664703 -0.40167648 -3.93069749 -0.49133719 0 0 Z " fill="#FFFDFC" transform="translate(131,272)"/>
<path d="M0 0 C2.5625 1.4375 2.5625 1.4375 4 4 C4.60667668 7.45339031 4.66388631 10.55225426 4 14 C1.13631689 17.69264401 -1.10253527 19.74125481 -5.75 20.375 C-9.22595496 19.97392827 -11.21349823 19.08590906 -13.7890625 16.6875 C-16.14567184 13.40345085 -16.55516213 9.94859063 -16 6 C-12.15099893 -1.23191217 -7.33147057 -1.61474663 0 0 Z " fill="#FFFCFC" transform="translate(144,239)"/>
<path d="M0 0 C2.125 1.44140625 2.125 1.44140625 4 4 C4.59831816 7.15483749 4.55826597 10.23529959 4.5 13.4375 C4.51546875 14.28376953 4.5309375 15.13003906 4.546875 16.00195312 C4.52082622 20.15999021 4.33716796 22.44929234 2.125 26.0625 C0 28 0 28 -2.5 28.5625 C-5.95282471 27.78561444 -6.91019922 26.88653733 -9 24 C-9.60117413 20.65882984 -9.55805024 17.38626378 -9.5 14 C-9.51546875 13.09765625 -9.5309375 12.1953125 -9.546875 11.265625 C-9.50804166 4.70279097 -9.50804166 4.70279097 -7.125 1.40625 C-4.43726894 -0.37239555 -3.16145301 -0.6322906 0 0 Z " fill="#E79580" transform="translate(233,349)"/>
<path d="M0 0 C2.875 0.875 2.875 0.875 4.875 2.875 C5.35398442 6.50038878 5.2453783 10.1590478 5.25 13.8125 C5.27449219 14.82763672 5.29898437 15.84277344 5.32421875 16.88867188 C5.32808594 17.86255859 5.33195312 18.83644531 5.3359375 19.83984375 C5.34415527 20.7330835 5.35237305 21.62632324 5.36083984 22.54663086 C4.875 24.875 4.875 24.875 3.00634766 26.69750977 C0.875 27.875 0.875 27.875 -1.6875 27.75 C-4.35228045 26.79341215 -5.37874677 26.07029863 -7.125 23.875 C-7.75258159 20.59299479 -7.58846507 17.27283075 -7.5625 13.9375 C-7.5924707 12.5772168 -7.5924707 12.5772168 -7.62304688 11.18945312 C-7.61818695 4.58481064 -7.61818695 4.58481064 -5.29296875 1.23828125 C-3.125 -0.125 -3.125 -0.125 0 0 Z " fill="#E6917F" transform="translate(265.125,326.125)"/>
<path d="M0 0 C2.91351961 4.37027942 2.36811757 8.35882161 2.375 13.5 C2.39949219 14.46292969 2.42398437 15.42585937 2.44921875 16.41796875 C2.45308594 17.34222656 2.45695312 18.26648438 2.4609375 19.21875 C2.46915527 20.06373047 2.47737305 20.90871094 2.48583984 21.77929688 C2 24 2 24 0.13134766 25.77148438 C-2.53002047 27.3055055 -3.97742918 27.54251271 -7 27 C-9.66465025 24.15746655 -10.38206663 22.19986065 -10.3984375 18.33984375 C-10.40230469 17.46392578 -10.40617187 16.58800781 -10.41015625 15.68554688 C-10.39855469 14.77869141 -10.38695312 13.87183594 -10.375 12.9375 C-10.38660156 12.02677734 -10.39820313 11.11605469 -10.41015625 10.17773438 C-10.40628906 9.30310547 -10.40242188 8.42847656 -10.3984375 7.52734375 C-10.39505371 6.73062256 -10.39166992 5.93390137 -10.38818359 5.11303711 C-9.33239465 -0.63404046 -5.06308089 -0.5523361 0 0 Z " fill="#E78646" transform="translate(275,214)"/>
<path d="M0 0 C2.12890625 0.484375 2.12890625 0.484375 4.69140625 2.609375 C6.39414493 6.01485236 6.8322914 7.73298752 6.12890625 11.484375 C3.52100797 15.11962715 2.05867045 16.31834568 -2.37109375 17.109375 C-6.80085795 16.31834568 -8.26319547 15.11962715 -10.87109375 11.484375 C-11.5744789 7.73298752 -11.13633243 6.01485236 -9.43359375 2.609375 C-6.1809083 -0.08797391 -4.13789326 -0.24541047 0 0 Z " fill="#FFA685" transform="translate(471.87109375,233.515625)"/>
<path d="M0 0 C0.99 0.495 0.99 0.495 2 1 C2.81978273 3.48627537 3.508374 5.90006685 4.125 8.4375 C4.30385742 9.15873047 4.48271484 9.87996094 4.66699219 10.62304688 C5.95973457 16.13382299 6.49014366 21.33611775 6 27 C4.25121236 23.88677365 3.51529055 21.0917433 2.9296875 17.578125 C2.75566406 16.55332031 2.58164062 15.52851563 2.40234375 14.47265625 C2.22832031 13.40917969 2.05429687 12.34570312 1.875 11.25 C1.69324219 10.17105469 1.51148438 9.09210938 1.32421875 7.98046875 C0.87708755 5.32121479 0.43590482 2.66111325 0 0 Z " fill="#FFA881" transform="translate(327,301)"/>
</svg>
